<svg width="24" height="24" xmlns="http://www.w3.org/2000/svg" fill-rule="evenodd" clip-rule="evenodd"><path d="M17.565 9.209c.454-.136.937-.209 1.435-.209 2.759 0 5 2.24 5 5s-2.241 5-5 5c-2.76 0-5-2.24-5-5 0-1.906 1.068-3.564 2.639-4.408l-.429-1.039-4.494 5.947h-1.741c-.251 2.525-2.385 4.5-4.975 4.5-2.76 0-5-2.24-5-5s2.24-5 5-5c.635 0 1.244.119 1.803.336l1.181-2.331-.462-1.005h-1.022c-.277 0-.5-.224-.5-.5 0-.239.189-.5.5-.5h2.491c.239 0 .5.189.5.5s-.26.5-.5.5h-.368l.47 1h6.484l-.421-1h-1.656c-.277 0-.5-.224-.5-.5 0-.311.259-.5.5-.5h2.33l1.735 4.209zm-11.217 1.024c-.421-.151-.875-.233-1.348-.233-2.208 0-4 1.792-4 4s1.792 4 4 4c2.038 0 3.722-1.528 3.969-3.5h-3.103c-.174.299-.497.5-.866.5-.552 0-1-.448-1-1 0-.533.419-.97.945-.998l1.403-2.769zm10.675.289c-1.208.689-2.023 1.989-2.023 3.478 0 2.208 1.792 4 4 4s4-1.792 4-4-1.792-4-4-4c-.364 0-.716.049-1.051.14l1.182 2.869c.491.064.869.484.869.991 0 .552-.449 1-1 1-.552 0-1-.448-1-1 0-.229.077-.44.207-.609l-1.184-2.869zm-9.783.165l-1.403 2.766.029.047h3.103c-.147-1.169-.798-2.183-1.729-2.813m.454-.898c1.254.804 2.126 2.152 2.281 3.711h.997l-2.454-5.336-.824 1.625zm7.683-1.789h-5.839l2.212 4.797 3.627-4.797z"/></svg>